# xmcd
#
# Track frame offsets:
#	150
#	27171
#	52823
#	75905
#	95251
#	122933
#	143622
#	163920
#	185784
#	208346
#	238041
#	267481
#	290584
#	313291
#
# Disc length: 4394 seconds
#
# Revision: 1
# Processed by: cddbd v1.5.2PL0 Copyright (c) Steve Scherf et al.
# Submitted via: EasyCDDAExtractor 16.0.9.1
#
DISCID=ce11280e
DTITLE=Khánh Ly and Sĩ Phú - TLCD013: Khối Tình Trương Chi
DYEAR=1989
DGENRE=Blues
TTITLE0=Sĩ Phú - Nhạc Sĩ Với Cây Đàn (Nguyễn Văn Khánh)
TTITLE1=Khánh Ly - Mối Tình Trương Chi (Văn Cao)
TTITLE2=Khánh Ly and Sĩ Phú - Trách Người Đi (Đan Trường)
TTITLE3=Khánh Ly - Đêm Cuối Cùng (Phạm Đình Chương)
TTITLE4=Sĩ Phú - Đôi Mắt Huyền (Thông Đạt)
TTITLE5=Khánh Ly - Một Chiều Thu (Nhật Bằng0
TTITLE6=Sĩ Phú - Tạ Từ (Tô Vũ)
TTITLE7=Khánh Ly - Giấc Mơ Ngàn (Ngọc Bích)
TTITLE8=Sĩ Phú - Lời Thề Xưa (Nguyễn Văn Khánh)
TTITLE9=Khánh Ly and Sĩ Phú - Điệu Buồn (Đào Duy)
TTITLE10=Sĩ Phú - Khối Tình Trương Chi (Phạm Duy)
TTITLE11=Khánh Ly - Hình Ảnh Một Buổi Chiều (Lâm Tuyền)
TTITLE12=Sĩ Phú - Thơ Ngây (Anh Việt)
TTITLE13=Khánh Ly - Tôi Đang Mơ Giấc Mộng Dài (Phạm Duy)
EXTD=
EXTT0=
EXTT1=
EXTT2=
EXTT3=
EXTT4=
EXTT5=
EXTT6=
EXTT7=
EXTT8=
EXTT9=
EXTT10=
EXTT11=
EXTT12=
EXTT13=
PLAYORDER=
